<mxfile host="Electron" modified="2023-11-07T07:15:36.011Z" agent="Mozilla/5.0 (Macintosh; Intel Mac OS X 10_15_7) AppleWebKit/537.36 (KHTML, like Gecko) draw.io/22.0.3 Chrome/114.0.5735.289 Electron/25.8.4 Safari/537.36" etag="kmabIqbV9AcpxzZaQNSp" version="22.0.3" type="device">
  <diagram name="Page-1" id="eJ90tPRCEymyVVQoBTqn">
    <mxGraphModel dx="1026" dy="1828" grid="1" gridSize="10" guides="1" tooltips="1" connect="1" arrows="1" fold="1" page="1" pageScale="1" pageWidth="827" pageHeight="1169" math="0" shadow="0">
      <root>
        <mxCell id="0" />
        <mxCell id="1" parent="0" />
        <mxCell id="4fiHQsxHdmseCG8Pe2hy-1" value="&lt;p style=&quot;margin:0px;margin-top:4px;text-align:center;&quot;&gt;&lt;i&gt;&amp;lt;&amp;lt;abstract&amp;gt;&amp;gt;&lt;/i&gt;&lt;br&gt;&lt;b&gt;Vehicle&lt;/b&gt;&lt;/p&gt;&lt;hr size=&quot;1&quot;&gt;&lt;p style=&quot;margin:0px;margin-left:4px;&quot;&gt;# registration : String&lt;br&gt;#&amp;nbsp;acceleration : int&lt;/p&gt;&lt;p style=&quot;margin:0px;margin-left:4px;&quot;&gt;# name : String&lt;/p&gt;&lt;hr size=&quot;1&quot;&gt;&lt;p style=&quot;margin:0px;margin-left:4px;&quot;&gt;+ Vehicle(registration : String, name : String, acceleration : int)&lt;/p&gt;&lt;p style=&quot;margin:0px;margin-left:4px;&quot;&gt;+ abstract &lt;i&gt;distance&lt;/i&gt;(time : int) : double&lt;br&gt;+ display(time : int) : void&lt;/p&gt;&lt;p style=&quot;margin:0px;margin-left:4px;&quot;&gt;+ toString() : String&lt;/p&gt;" style="verticalAlign=top;align=left;overflow=fill;fontSize=12;fontFamily=Helvetica;html=1;whiteSpace=wrap;" vertex="1" parent="1">
          <mxGeometry x="20" y="60" width="340" height="160" as="geometry" />
        </mxCell>
        <mxCell id="4fiHQsxHdmseCG8Pe2hy-18" style="rounded=0;orthogonalLoop=1;jettySize=auto;html=1;entryX=0.5;entryY=1;entryDx=0;entryDy=0;endSize=12;exitX=0.5;exitY=0;exitDx=0;exitDy=0;" edge="1" parent="1" source="4fiHQsxHdmseCG8Pe2hy-19" target="4fiHQsxHdmseCG8Pe2hy-1">
          <mxGeometry relative="1" as="geometry">
            <mxPoint x="240" y="280" as="sourcePoint" />
          </mxGeometry>
        </mxCell>
        <mxCell id="4fiHQsxHdmseCG8Pe2hy-17" style="rounded=0;orthogonalLoop=1;jettySize=auto;html=1;entryX=1;entryY=1;entryDx=0;entryDy=0;endSize=12;exitX=0;exitY=0;exitDx=0;exitDy=0;" edge="1" parent="1" source="4fiHQsxHdmseCG8Pe2hy-23" target="4fiHQsxHdmseCG8Pe2hy-1">
          <mxGeometry relative="1" as="geometry">
            <mxPoint x="575" y="250" as="sourcePoint" />
          </mxGeometry>
        </mxCell>
        <mxCell id="4fiHQsxHdmseCG8Pe2hy-15" style="rounded=0;orthogonalLoop=1;jettySize=auto;html=1;exitX=0;exitY=0;exitDx=0;exitDy=0;entryX=1.004;entryY=0.14;entryDx=0;entryDy=0;entryPerimeter=0;endSize=12;" edge="1" parent="1" source="4fiHQsxHdmseCG8Pe2hy-31" target="4fiHQsxHdmseCG8Pe2hy-1">
          <mxGeometry relative="1" as="geometry">
            <mxPoint x="420" y="85" as="sourcePoint" />
          </mxGeometry>
        </mxCell>
        <mxCell id="4fiHQsxHdmseCG8Pe2hy-16" style="rounded=0;orthogonalLoop=1;jettySize=auto;html=1;entryX=0.992;entryY=0.4;entryDx=0;entryDy=0;entryPerimeter=0;endSize=12;exitX=0;exitY=0;exitDx=0;exitDy=0;" edge="1" parent="1" source="4fiHQsxHdmseCG8Pe2hy-27" target="4fiHQsxHdmseCG8Pe2hy-1">
          <mxGeometry relative="1" as="geometry">
            <mxPoint x="440" y="165" as="sourcePoint" />
          </mxGeometry>
        </mxCell>
        <mxCell id="4fiHQsxHdmseCG8Pe2hy-19" value="Truck" style="swimlane;fontStyle=1;align=center;verticalAlign=top;childLayout=stackLayout;horizontal=1;startSize=26;horizontalStack=0;resizeParent=1;resizeParentMax=0;resizeLast=0;collapsible=1;marginBottom=0;whiteSpace=wrap;html=1;" vertex="1" parent="1">
          <mxGeometry x="20" y="330" width="480" height="138" as="geometry" />
        </mxCell>
        <mxCell id="4fiHQsxHdmseCG8Pe2hy-20" value="- &lt;u&gt;NAME : String = &#39;Track&#39;&lt;/u&gt;&lt;br&gt;- DISTANCE_FACTOR : int&lt;br&gt;- tonnage : int" style="text;strokeColor=none;fillColor=none;align=left;verticalAlign=top;spacingLeft=4;spacingRight=4;overflow=hidden;rotatable=0;points=[[0,0.5],[1,0.5]];portConstraint=eastwest;whiteSpace=wrap;html=1;" vertex="1" parent="4fiHQsxHdmseCG8Pe2hy-19">
          <mxGeometry y="26" width="480" height="54" as="geometry" />
        </mxCell>
        <mxCell id="4fiHQsxHdmseCG8Pe2hy-21" value="" style="line;strokeWidth=1;fillColor=none;align=left;verticalAlign=middle;spacingTop=-1;spacingLeft=3;spacingRight=3;rotatable=0;labelPosition=right;points=[];portConstraint=eastwest;strokeColor=inherit;" vertex="1" parent="4fiHQsxHdmseCG8Pe2hy-19">
          <mxGeometry y="80" width="480" height="8" as="geometry" />
        </mxCell>
        <mxCell id="4fiHQsxHdmseCG8Pe2hy-22" value="+ Truck(registration : String, acceleration : int, tonnage : int)&lt;br style=&quot;border-color: var(--border-color);&quot;&gt;+ distance(time : int): double&lt;br style=&quot;border-color: var(--border-color);&quot;&gt;+ toString() : String" style="text;strokeColor=none;fillColor=none;align=left;verticalAlign=top;spacingLeft=4;spacingRight=4;overflow=hidden;rotatable=0;points=[[0,0.5],[1,0.5]];portConstraint=eastwest;whiteSpace=wrap;html=1;" vertex="1" parent="4fiHQsxHdmseCG8Pe2hy-19">
          <mxGeometry y="88" width="480" height="50" as="geometry" />
        </mxCell>
        <mxCell id="4fiHQsxHdmseCG8Pe2hy-23" value="Car" style="swimlane;fontStyle=1;align=center;verticalAlign=top;childLayout=stackLayout;horizontal=1;startSize=26;horizontalStack=0;resizeParent=1;resizeParentMax=0;resizeLast=0;collapsible=1;marginBottom=0;whiteSpace=wrap;html=1;" vertex="1" parent="1">
          <mxGeometry x="540" y="330" width="330" height="140" as="geometry" />
        </mxCell>
        <mxCell id="4fiHQsxHdmseCG8Pe2hy-24" value="-&amp;nbsp;&lt;u style=&quot;border-color: var(--border-color);&quot;&gt;NAME : String = &#39;Car&#39;&lt;/u&gt;&lt;br&gt;- DISTANCE_FACTOR : int&lt;br&gt;- bodyType : String" style="text;strokeColor=none;fillColor=none;align=left;verticalAlign=top;spacingLeft=4;spacingRight=4;overflow=hidden;rotatable=0;points=[[0,0.5],[1,0.5]];portConstraint=eastwest;whiteSpace=wrap;html=1;" vertex="1" parent="4fiHQsxHdmseCG8Pe2hy-23">
          <mxGeometry y="26" width="330" height="54" as="geometry" />
        </mxCell>
        <mxCell id="4fiHQsxHdmseCG8Pe2hy-25" value="" style="line;strokeWidth=1;fillColor=none;align=left;verticalAlign=middle;spacingTop=-1;spacingLeft=3;spacingRight=3;rotatable=0;labelPosition=right;points=[];portConstraint=eastwest;strokeColor=inherit;" vertex="1" parent="4fiHQsxHdmseCG8Pe2hy-23">
          <mxGeometry y="80" width="330" height="8" as="geometry" />
        </mxCell>
        <mxCell id="4fiHQsxHdmseCG8Pe2hy-26" value="+ Car(registration : String, acceleration : int)&lt;br style=&quot;border-color: var(--border-color);&quot;&gt;+ distance(time : int): double&lt;br&gt;+ toString() : String" style="text;strokeColor=none;fillColor=none;align=left;verticalAlign=top;spacingLeft=4;spacingRight=4;overflow=hidden;rotatable=0;points=[[0,0.5],[1,0.5]];portConstraint=eastwest;whiteSpace=wrap;html=1;" vertex="1" parent="4fiHQsxHdmseCG8Pe2hy-23">
          <mxGeometry y="88" width="330" height="52" as="geometry" />
        </mxCell>
        <mxCell id="4fiHQsxHdmseCG8Pe2hy-27" value="Bike" style="swimlane;fontStyle=1;align=center;verticalAlign=top;childLayout=stackLayout;horizontal=1;startSize=26;horizontalStack=0;resizeParent=1;resizeParentMax=0;resizeLast=0;collapsible=1;marginBottom=0;whiteSpace=wrap;html=1;" vertex="1" parent="1">
          <mxGeometry x="530" y="170" width="410" height="138" as="geometry" />
        </mxCell>
        <mxCell id="4fiHQsxHdmseCG8Pe2hy-28" value="-&amp;nbsp;&lt;u style=&quot;border-color: var(--border-color);&quot;&gt;NAME : String = &#39;Bike&#39;&lt;/u&gt;&lt;br&gt;- DISTANCE_FACTOR : int&lt;br&gt;- capacity : int" style="text;strokeColor=none;fillColor=none;align=left;verticalAlign=top;spacingLeft=4;spacingRight=4;overflow=hidden;rotatable=0;points=[[0,0.5],[1,0.5]];portConstraint=eastwest;whiteSpace=wrap;html=1;" vertex="1" parent="4fiHQsxHdmseCG8Pe2hy-27">
          <mxGeometry y="26" width="410" height="54" as="geometry" />
        </mxCell>
        <mxCell id="4fiHQsxHdmseCG8Pe2hy-29" value="" style="line;strokeWidth=1;fillColor=none;align=left;verticalAlign=middle;spacingTop=-1;spacingLeft=3;spacingRight=3;rotatable=0;labelPosition=right;points=[];portConstraint=eastwest;strokeColor=inherit;" vertex="1" parent="4fiHQsxHdmseCG8Pe2hy-27">
          <mxGeometry y="80" width="410" height="8" as="geometry" />
        </mxCell>
        <mxCell id="4fiHQsxHdmseCG8Pe2hy-30" value="+ Bike(registration : String, acceleration : int, capacity : int)&lt;br style=&quot;border-color: var(--border-color);&quot;&gt;+ distance(time : int): double&lt;br style=&quot;border-color: var(--border-color);&quot;&gt;+ toString() : String" style="text;strokeColor=none;fillColor=none;align=left;verticalAlign=top;spacingLeft=4;spacingRight=4;overflow=hidden;rotatable=0;points=[[0,0.5],[1,0.5]];portConstraint=eastwest;whiteSpace=wrap;html=1;" vertex="1" parent="4fiHQsxHdmseCG8Pe2hy-27">
          <mxGeometry y="88" width="410" height="50" as="geometry" />
        </mxCell>
        <mxCell id="4fiHQsxHdmseCG8Pe2hy-31" value="Bus" style="swimlane;fontStyle=1;align=center;verticalAlign=top;childLayout=stackLayout;horizontal=1;startSize=26;horizontalStack=0;resizeParent=1;resizeParentMax=0;resizeLast=0;collapsible=1;marginBottom=0;whiteSpace=wrap;html=1;" vertex="1" parent="1">
          <mxGeometry x="490" y="10" width="430" height="138" as="geometry" />
        </mxCell>
        <mxCell id="4fiHQsxHdmseCG8Pe2hy-32" value="-&amp;nbsp;&lt;u style=&quot;border-color: var(--border-color);&quot;&gt;NAME : String = &#39;Bus&#39;&lt;/u&gt;&lt;br&gt;- DISTANCE_FACTOR : int&lt;br&gt;-&amp;nbsp;passengers&amp;nbsp;: int" style="text;strokeColor=none;fillColor=none;align=left;verticalAlign=top;spacingLeft=4;spacingRight=4;overflow=hidden;rotatable=0;points=[[0,0.5],[1,0.5]];portConstraint=eastwest;whiteSpace=wrap;html=1;" vertex="1" parent="4fiHQsxHdmseCG8Pe2hy-31">
          <mxGeometry y="26" width="430" height="54" as="geometry" />
        </mxCell>
        <mxCell id="4fiHQsxHdmseCG8Pe2hy-33" value="" style="line;strokeWidth=1;fillColor=none;align=left;verticalAlign=middle;spacingTop=-1;spacingLeft=3;spacingRight=3;rotatable=0;labelPosition=right;points=[];portConstraint=eastwest;strokeColor=inherit;" vertex="1" parent="4fiHQsxHdmseCG8Pe2hy-31">
          <mxGeometry y="80" width="430" height="8" as="geometry" />
        </mxCell>
        <mxCell id="4fiHQsxHdmseCG8Pe2hy-34" value="+ Bus(registration : String, acceleration : int,&amp;nbsp;passengers&amp;nbsp;: int)&lt;br style=&quot;border-color: var(--border-color);&quot;&gt;+ distance(time : int): double&lt;br style=&quot;border-color: var(--border-color);&quot;&gt;+ toString() : String" style="text;strokeColor=none;fillColor=none;align=left;verticalAlign=top;spacingLeft=4;spacingRight=4;overflow=hidden;rotatable=0;points=[[0,0.5],[1,0.5]];portConstraint=eastwest;whiteSpace=wrap;html=1;" vertex="1" parent="4fiHQsxHdmseCG8Pe2hy-31">
          <mxGeometry y="88" width="430" height="50" as="geometry" />
        </mxCell>
      </root>
    </mxGraphModel>
  </diagram>
</mxfile>
